<?xml version="1.0" encoding="utf-8"?>
<!-- Generator: Adobe Illustrator 18.1.1, SVG Export Plug-In . SVG Version: 6.00 Build 0)  -->
<svg version="1.1" xmlns="http://www.w3.org/2000/svg" xmlns:xlink="http://www.w3.org/1999/xlink" x="0px" y="0px"
	 viewBox="0 0 163.3 163.3" enable-background="new 0 0 163.3 163.3" xml:space="preserve">
<g id="wind" display="none">
	<g id="Your_Icon_3_" display="inline" opacity="0.2">
		<path fill="#B4B4B5" d="M47.3,19.7c0.5,0.2,0.9,0,1-0.4c0.1-0.4-0.2-1-0.7-1.2c-12.3-5.3-24.6,11.4-36.9-1.2
			c-0.5-0.5-0.9-0.6-1-0.2c-0.1,0.4,0.2,1.2,0.7,1.7C22.6,31.5,34.9,14.8,47.3,19.7z"/>
		<path fill="#B4B4B5" d="M23.7,18.1c5-0.7,9.9-3.2,14.9-4.1c0.5-0.1,0.9-0.5,1-1c0.1-0.5-0.2-0.8-0.7-0.8c-5,0.9-9.9,3.4-14.9,4.2
			c-0.5,0.1-0.9,0.5-1,1C22.9,17.8,23.2,18.2,23.7,18.1z"/>
		<path fill="#B4B4B5" d="M53.1,27.4C40.8,14.3,28.5,31,16.2,26c-0.5-0.2-0.9,0-1,0.4c-0.1,0.4,0.2,1,0.7,1.2
			c12.3,5.3,24.6-11.4,36.9,1.2c0.5,0.5,0.9,0.6,1,0.2C53.9,28.7,53.6,27.9,53.1,27.4z"/>
		<path fill="#B4B4B5" d="M49.4,29.6c-12.3-7.7-24.6,9.3-36.9-0.5c-0.5-0.4-0.9-0.4-1,0c-0.1,0.4,0.2,1.1,0.7,1.5
			c12.3,10.2,24.6-6.7,36.9,0.6c0.5,0.3,0.9,0.2,1-0.2C50.2,30.5,49.9,29.8,49.4,29.6z"/>
		<path fill="#B4B4B5" d="M26.6,36.7c-5,1.3-9.9,1.4-14.9-3.1c-0.5-0.4-0.9-0.5-1-0.1c-0.1,0.4,0.2,1.1,0.7,1.6
			c5,4.6,9.9,4.6,14.9,3.4c0.5-0.1,0.9-0.6,1-1.1C27.4,36.8,27,36.5,26.6,36.7z"/>
	</g>
	<g id="Your_Icon_2_" display="inline" opacity="0.2">
		<path fill="#B4B4B5" d="M149.1,130.2c0.5,0.2,0.9,0,1-0.4c0.1-0.4-0.2-1-0.7-1.2c-12.2-5.2-24.5,11.4-36.7-1.2
			c-0.5-0.5-0.9-0.6-1-0.2c-0.1,0.4,0.2,1.2,0.7,1.6C124.6,141.9,136.8,125.3,149.1,130.2z"/>
		<path fill="#B4B4B5" d="M125.7,128.6c4.9-0.7,9.9-3.2,14.8-4.1c0.5-0.1,0.9-0.5,1-1c0.1-0.5-0.2-0.8-0.7-0.7
			c-4.9,0.9-9.9,3.4-14.8,4.1c-0.5,0.1-0.9,0.5-1,1C124.9,128.3,125.2,128.7,125.7,128.6z"/>
		<path fill="#B4B4B5" d="M154.9,137.9c-12.2-13-24.5,3.5-36.7-1.4c-0.5-0.2-0.9,0-1,0.4c-0.1,0.4,0.2,1,0.7,1.2
			c12.2,5.2,24.5-11.4,36.7,1.2c0.5,0.5,0.9,0.6,1,0.2C155.7,139.1,155.4,138.4,154.9,137.9z"/>
		<path fill="#B4B4B5" d="M151.2,140c-12.2-7.6-24.4,9.2-36.7-0.5c-0.5-0.4-0.9-0.4-1,0c-0.1,0.4,0.2,1.1,0.7,1.5
			c12.2,10.1,24.4-6.7,36.7,0.6c0.5,0.3,0.9,0.2,1-0.2C152,140.9,151.7,140.2,151.2,140z"/>
		<path fill="#B4B4B5" d="M128.5,147c-4.9,1.3-9.9,1.4-14.8-3.1c-0.5-0.4-0.9-0.5-1-0.1c-0.1,0.4,0.2,1.1,0.7,1.5
			c4.9,4.6,9.9,4.6,14.8,3.4c0.5-0.1,0.9-0.6,1-1.1C129.3,147.2,129,146.9,128.5,147z"/>
	</g>
</g>
<g id="yellow3">
	
		<path fill="#FFA800" stroke="#FFA800" stroke-width="1.4065" stroke-linecap="round" stroke-linejoin="round" stroke-miterlimit="10" d="
		M86.4,90.2c0,0,6.6,0.7,11.3,1.1c3.3,0.3,6.9,0.1,7.7-0.2c0.8-0.3,0,10.6,0,10.6s-5,1.7-8.4-0.9C93.6,98.2,86.1,92.7,86.4,90.2z"/>
</g>
<g id="yellow2">
	
		<path fill="#FFA800" stroke="#FFA800" stroke-width="1.4065" stroke-linecap="round" stroke-linejoin="round" stroke-miterlimit="10" d="
		M87.2,62.8c0,0,6.7-2.3,17.7-5.9v7c0,0-2.2,4.2-10.9,2.7C88.7,65.6,87.2,62.8,87.2,62.8z"/>
</g>
<g id="pink2">
	<path fill="#E95A78" stroke="#E95A78" stroke-width="2.3442" stroke-linecap="square" stroke-miterlimit="10" d="M82,49.7v-9.2
		c0,0,7.3-0.6,9.2-1.1C93.1,38.9,97,38,97,38s-3.8,9.4-8.3,10.9C84.2,50.5,82,49.7,82,49.7z"/>
</g>
<g id="BASE">
	
		<circle fill="#E95A78" stroke="#E95A78" stroke-width="2.3442" stroke-linecap="square" stroke-miterlimit="10" cx="78.1" cy="13.7" r="8.9"/>
	
		<polygon fill="#FFFFFF" stroke="#FFFFFF" stroke-width="3.2819" stroke-linecap="round" stroke-linejoin="round" stroke-miterlimit="10" points="
		75,30.9 71.8,25 77.8,15.3 84,25 81.5,31 79.3,29.1 78.2,29.1 76.8,29.1 	"/>
	
		<polygon fill="none" stroke="#B5B5B5" stroke-width="2.3442" stroke-linecap="round" stroke-linejoin="round" stroke-miterlimit="10" points="
		77.9,126.9 61.7,121.3 58.2,116.6 58.2,45 63.2,38.1 76.4,32.8 80.1,32.8 95.1,38.8 100.4,44.7 100.4,117.8 97.6,121 	"/>
	
		<polygon fill="#B5B5B5" stroke="#B5B5B5" stroke-width="2.3442" stroke-linecap="round" stroke-linejoin="round" stroke-miterlimit="10" points="
		74.5,32.8 74.5,22.8 77.8,17.2 81.1,22.8 81.1,32.8 78.9,30.9 77.8,30.9 76.4,30.9 	"/>
	
		<line fill="#231F20" stroke="#B5B5B5" stroke-width="2.3442" stroke-linecap="round" stroke-linejoin="round" stroke-miterlimit="10" x1="78.2" y1="127.8" x2="78.2" y2="30.9"/>
	
		<line fill="#231F20" stroke="#B5B5B5" stroke-width="3.7508" stroke-linecap="round" stroke-linejoin="round" stroke-miterlimit="10" x1="59.6" y1="80.6" x2="99.2" y2="80.6"/>
	
		<line fill="#231F20" stroke="#B5B5B5" stroke-width="2.3442" stroke-linecap="round" stroke-linejoin="round" stroke-miterlimit="10" x1="69.2" y1="124.1" x2="69.2" y2="149.4"/>
	
		<line fill="#231F20" stroke="#B5B5B5" stroke-width="2.3442" stroke-linecap="round" stroke-linejoin="round" stroke-miterlimit="10" x1="88.7" y1="123.7" x2="88.7" y2="149.4"/>
	
		<rect x="74.5" y="125.7" fill="#B5B5B5" stroke="#B5B5B5" stroke-width="2.3442" stroke-linecap="round" stroke-linejoin="round" stroke-miterlimit="10" width="8.3" height="24.5"/>
</g>
<g id="pink1">
	<path fill="#E95A78" stroke="#E95A78" stroke-width="2.3442" stroke-linecap="square" stroke-miterlimit="10" d="M53.9,69.2l18,0.6
		c0,0-3.6,6.6-6.4,6.6C62.6,76.4,54,78.6,53.9,69.2z"/>
</g>
<g id="yellow1">
	
		<path fill="#FFA800" stroke="#FFA800" stroke-width="1.4065" stroke-linecap="round" stroke-linejoin="round" stroke-miterlimit="10" d="
		M56.2,49.6c0,0,17.7-1.6,18.1,0c0.5,1.6,0,8.3,0,8.3s-3.8,2.2-7.2,0C63.7,55.7,56.3,52.3,56.2,49.6z"/>
</g>
<g id="blue2">
	<path fill="#00ACD0" stroke="#00ACD0" stroke-width="2.3442" stroke-linecap="square" stroke-miterlimit="10" d="M62.3,85.2v9.2
		c0,0,2.3,3.9,5.6,2c3.3-1.9,5.8-2.7,9.1-6.3c3.2-3.5,6.4-5.2,5.8-5.8S62.3,85.2,62.3,85.2z"/>
</g>
<g id="blue1">
	<path fill="#00ACD0" stroke="#00ACD0" stroke-width="2.3442" stroke-linecap="square" stroke-miterlimit="10" d="M62.3,110.1
		c0,0,26-1.4,34.7-5.6c2.3-1.1,0.4,12,0.4,12s0.6,1.4-3.9,2.8c-4.5,1.4-5.2,2.1-12.4,0.5C73.3,117.9,62.3,114.1,62.3,110.1z"/>
</g>
</svg>
