<?xml version="1.0" encoding="UTF-8" standalone="no"?>
<svg
   xmlns:sketch="http://www.bohemiancoding.com/sketch/ns"
   xmlns:dc="http://purl.org/dc/elements/1.1/"
   xmlns:cc="http://creativecommons.org/ns#"
   xmlns:rdf="http://www.w3.org/1999/02/22-rdf-syntax-ns#"
   xmlns:svg="http://www.w3.org/2000/svg"
   xmlns="http://www.w3.org/2000/svg"
   xmlns:sodipodi="http://sodipodi.sourceforge.net/DTD/sodipodi-0.dtd"
   xmlns:inkscape="http://www.inkscape.org/namespaces/inkscape"
   width="210px"
   height="242px"
   viewBox="0 0 210 242"
   version="1.1"
   id="svg5801"
   inkscape:version="0.91 r13725"
   sodipodi:docname="logo-design0.svg">
  <metadata
     id="metadata5978">
    <rdf:RDF>
      <cc:Work
         rdf:about="">
        <dc:format>image/svg+xml</dc:format>
        <dc:type
           rdf:resource="http://purl.org/dc/dcmitype/StillImage" />
        <dc:title>Group</dc:title>
      </cc:Work>
    </rdf:RDF>
  </metadata>
  <sodipodi:namedview
     pagecolor="#ffffff"
     bordercolor="#666666"
     borderopacity="1"
     objecttolerance="10"
     gridtolerance="10"
     guidetolerance="10"
     inkscape:pageopacity="0"
     inkscape:pageshadow="2"
     inkscape:window-width="1366"
     inkscape:window-height="721"
     id="namedview5976"
     showgrid="true"
     inkscape:zoom="3.9008264"
     inkscape:cx="86.8403"
     inkscape:cy="131.25424"
     inkscape:window-x="-2"
     inkscape:window-y="24"
     inkscape:window-maximized="1"
     inkscape:current-layer="g7239"
     showguides="false">
    <inkscape:grid
       type="xygrid"
       id="grid6306" />
  </sodipodi:namedview>
  <!-- Generator: Sketch 3.3.2 (12043) - http://www.bohemiancoding.com/sketch -->
  <title
     id="title5803">Group</title>
  <desc
     id="desc5805">Created with Sketch.</desc>
  <defs
     id="defs5807" />
  <g
     id="Page-1"
     stroke="none"
     stroke-width="1"
     fill="none"
     fill-rule="evenodd"
     sketch:type="MSPage">
    <g
       id="template_toronto_COLOR"
       sketch:type="MSLayerGroup"
       transform="translate(-252.000000, 0.000000)">
      <g
         id="Group"
         transform="translate(252.000000, 0.000000)"
         sketch:type="MSShapeGroup">
        <g
           id="g7213"
           transform="matrix(0.95841732,0,0,0.95841732,4.6299151,1.3289502)">
          <g
             id="BASE"
             transform="matrix(0.91767847,0,0,0.91767847,33.365001,69.33916)">
            <circle
               id="circle3480"
               r="8.8999996"
               cy="13.7"
               cx="78.099998"
               stroke-miterlimit="10"
               style="fill:#e95a78;stroke:#e95a78;stroke-width:2.3441999;stroke-linecap:square;stroke-miterlimit:10" />
            <polygon
               id="polygon3482"
               points="75,30.9 71.8,25 77.8,15.3 84,25 81.5,31 79.3,29.1 78.2,29.1 76.8,29.1 "
               stroke-miterlimit="10"
               style="fill:#ffffff;stroke:#ffffff;stroke-width:3.28189993;stroke-linecap:round;stroke-linejoin:round;stroke-miterlimit:10" />
            <polygon
               id="polygon3484"
               points="100.4,44.7 100.4,117.8 97.6,121 77.9,126.9 61.7,121.3 58.2,116.6 58.2,45 63.2,38.1 76.4,32.8 80.1,32.8 95.1,38.8 "
               stroke-miterlimit="10"
               style="fill:none;stroke:#b5b5b5;stroke-width:2.3441999;stroke-linecap:round;stroke-linejoin:round;stroke-miterlimit:10" />
            <polygon
               id="polygon3486"
               points="74.5,32.8 74.5,22.8 77.8,17.2 81.1,22.8 81.1,32.8 78.9,30.9 77.8,30.9 76.4,30.9 "
               stroke-miterlimit="10"
               style="fill:#b5b5b5;stroke:#b5b5b5;stroke-width:2.3441999;stroke-linecap:round;stroke-linejoin:round;stroke-miterlimit:10" />
            <line
               id="line3488"
               y2="30.9"
               x2="78.199997"
               y1="127.8"
               x1="78.199997"
               stroke-miterlimit="10"
               style="fill:#231f20;stroke:#b5b5b5;stroke-width:2.3441999;stroke-linecap:round;stroke-linejoin:round;stroke-miterlimit:10" />
            <line
               id="line3490"
               y2="80.599998"
               x2="99.199997"
               y1="80.599998"
               x1="59.599998"
               stroke-miterlimit="10"
               style="fill:#231f20;stroke:#b5b5b5;stroke-width:3.75079989;stroke-linecap:round;stroke-linejoin:round;stroke-miterlimit:10" />
          </g>
          <g
             id="yellow3"
             transform="matrix(0.91767847,0,0,0.91767847,33.365001,69.33916)">
            <path
               id="path3471"
               d="m 86.4,90.2 c 0,0 6.6,0.7 11.3,1.1 3.3,0.3 6.9,0.1 7.7,-0.2 0.8,-0.3 0,10.6 0,10.6 0,0 -5,1.7 -8.4,-0.9 C 93.6,98.2 86.1,92.7 86.4,90.2 Z"
               stroke-miterlimit="10"
               inkscape:connector-curvature="0"
               style="fill:#ffa800;stroke:#ffa800;stroke-width:1.40649998;stroke-linecap:round;stroke-linejoin:round;stroke-miterlimit:10" />
          </g>
          <g
             id="yellow2"
             transform="matrix(0.91767847,0,0,0.91767847,33.365001,69.33916)">
            <path
               id="path3474"
               d="m 87.2,62.8 c 0,0 6.7,-2.3 17.7,-5.9 l 0,7 c 0,0 -2.2,4.2 -10.9,2.7 -5.3,-1 -6.8,-3.8 -6.8,-3.8 z"
               stroke-miterlimit="10"
               inkscape:connector-curvature="0"
               style="fill:#ffa800;stroke:#ffa800;stroke-width:1.40649998;stroke-linecap:round;stroke-linejoin:round;stroke-miterlimit:10" />
          </g>
          <g
             id="pink2"
             transform="matrix(0.91767847,0,0,0.91767847,33.365001,69.33916)">
            <path
               id="path3477"
               d="m 82,49.7 0,-9.2 c 0,0 7.3,-0.6 9.2,-1.1 C 93.1,38.9 97,38 97,38 c 0,0 -3.8,9.4 -8.3,10.9 -4.5,1.6 -6.7,0.8 -6.7,0.8 z"
               stroke-miterlimit="10"
               inkscape:connector-curvature="0"
               style="fill:#e95a78;stroke:#e95a78;stroke-width:2.3441999;stroke-linecap:square;stroke-miterlimit:10" />
          </g>
          <g
             id="pink1"
             transform="matrix(0.91767847,0,0,0.91767847,33.365001,69.33916)">
            <path
               id="path3499"
               d="m 53.9,69.2 18,0.6 c 0,0 -3.6,6.6 -6.4,6.6 -2.9,0 -11.5,2.2 -11.6,-7.2 z"
               stroke-miterlimit="10"
               inkscape:connector-curvature="0"
               style="fill:#e95a78;stroke:#e95a78;stroke-width:2.3441999;stroke-linecap:square;stroke-miterlimit:10" />
          </g>
          <g
             id="yellow1"
             transform="matrix(0.91767847,0,0,0.91767847,33.365001,69.33916)">
            <path
               id="path3502"
               d="m 56.2,49.6 c 0,0 17.7,-1.6 18.1,0 0.5,1.6 0,8.3 0,8.3 0,0 -3.8,2.2 -7.2,0 -3.4,-2.2 -10.8,-5.6 -10.9,-8.3 z"
               stroke-miterlimit="10"
               inkscape:connector-curvature="0"
               style="fill:#ffa800;stroke:#ffa800;stroke-width:1.40649998;stroke-linecap:round;stroke-linejoin:round;stroke-miterlimit:10" />
          </g>
          <g
             id="blue2"
             transform="matrix(0.91767847,0,0,0.91767847,33.365001,69.33916)">
            <path
               id="path3505"
               d="m 62.3,85.2 0,9.2 c 0,0 2.3,3.9 5.6,2 3.3,-1.9 5.8,-2.7 9.1,-6.3 3.2,-3.5 6.4,-5.2 5.8,-5.8 -0.6,-0.6 -20.5,0.9 -20.5,0.9 z"
               stroke-miterlimit="10"
               inkscape:connector-curvature="0"
               style="fill:#00acd0;stroke:#00acd0;stroke-width:2.3441999;stroke-linecap:square;stroke-miterlimit:10" />
          </g>
          <g
             id="blue1"
             transform="matrix(0.91767847,0,0,0.91767847,33.365001,69.33916)">
            <path
               id="path3508"
               d="m 62.3,110.1 c 0,0 26,-1.4 34.7,-5.6 2.3,-1.1 0.4,12 0.4,12 0,0 0.6,1.4 -3.9,2.8 -4.5,1.4 -5.2,2.1 -12.4,0.5 -7.8,-1.9 -18.8,-5.7 -18.8,-9.7 z"
               stroke-miterlimit="10"
               inkscape:connector-curvature="0"
               style="fill:#00acd0;stroke:#00acd0;stroke-width:2.3441999;stroke-linecap:square;stroke-miterlimit:10" />
          </g>
        </g>
        <path
           d="M208.1,59.7 L107.2,1.5 C106.1,0.8 104.6,0.8 103.5,1.5 L2.6,59.7 C1.5,60.4 0.8,61.6 0.8,62.9 L0.8,179.4 C0.8,180.7 1.5,182 2.6,182.6 L103.5,240.8 C104.1,241.1 104.7,241.3 105.3,241.3 C105.9,241.3 106.6,241.1 107.1,240.8 L208,182.6 C209.1,181.9 209.8,180.7 209.8,179.4 L209.8,62.9 C209.9,61.6 209.2,60.4 208.1,59.7 L208.1,59.7 Z M202.6,177.3 L105.3,233.4 L8.1,177.3 L8,177.3 L8,65 L105.3,8.9 L202.4,65 L202.6,65.1 L202.6,177.3 L202.6,177.3 Z"
           id="path5813"
           fill="#C0493D"
           style="fill:#ffa800;fill-opacity:1" />
        <g
           transform="translate(16.000000, 19.000000)"
           id="g5815"
           style="fill:#ffa800;fill-opacity:1"
           fill="#C0493D">
          <g
             transform="translate(0.000000, 54.000000)"
             id="g5817"
             style="fill:#ffa800;fill-opacity:1" />
          <g
             transform="translate(21.000000, 161.000000)"
             id="g5829"
             style="fill:#ffa800;fill-opacity:1" />
          <g
             transform="translate(5.000000, 55.000000)"
             id="g5835"
             style="fill:#ffa800;fill-opacity:1" />
          <path
             d="M131.1,24.3 L89.8,0.5 C89.7,0.4 89.7,0.4 89.6,0.4 L89.6,0.4 L89.5,0.4 L89.4,0.4 L89.2,0.4 C89.2,0.4 89.2,0.4 89.1,0.4 L89,0.4 L88.8,0.4 L88.8,0.4 C88.7,0.4 88.7,0.5 88.6,0.5 L88.6,0.5 L48,23.9 C47.5,24.2 47.3,24.8 47.6,25.3 C47.9,25.8 48.5,26 49,25.7 L85.1,4.9 L70,24.4 C69.7,24.8 69.7,25.5 70.2,25.8 C70.6,26.1 71.3,26.1 71.6,25.6 L88.3,4.2 L88.3,25.1 C88.3,25.6 88.7,26.1 89.3,26.1 C89.9,26.1 90.3,25.7 90.3,25.1 L90.3,4.2 L107,25.6 C107.2,25.9 107.5,26 107.8,26 C108,26 108.2,25.9 108.4,25.8 C108.8,25.5 108.9,24.8 108.6,24.4 L93.3,4.8 L130.1,26 C130.3,26.1 130.4,26.1 130.6,26.1 C130.9,26.1 131.3,25.9 131.5,25.6 C131.7,25.2 131.6,24.5 131.1,24.3 L131.1,24.3 Z"
             id="path5933"
             style="fill:#e95a78;fill-opacity:1" />
          <g
             transform="translate(38.000000, 31.000000)"
             id="g5935"
             style="fill:#00acd0;fill-opacity:1">
            <path
               d="M102.1,18.3 L0.7,18.3 L0.7,0.1 L102.1,0.1 L102.1,18.3 L102.1,18.3 Z M2.7,16.3 L100.1,16.3 L100.1,2.1 L2.7,2.1 L2.7,16.3 L2.7,16.3 Z"
               id="path5937"
               style="fill:#00acd0;fill-opacity:1" />
            <g
               transform="translate(16.000000, 5.000000)"
               id="g5939"
               style="fill:#00acd0;fill-opacity:1">
              <path
                 d="M1.6,8 C2,8 2.3,7.7 2.3,7.2 L2.3,3.3 L5.2,7.4 C5.4,7.7 5.6,7.9 5.9,7.9 L5.9,7.9 C6.3,7.9 6.6,7.6 6.6,7.1 L6.6,1.4 C6.6,1 6.3,0.6 5.9,0.6 C5.5,0.6 5.2,0.9 5.2,1.4 L5.2,5.1 L2.4,1.1 C2.2,0.8 2,0.6 1.7,0.6 L1.6,0.6 C1.2,0.6 0.9,0.9 0.9,1.4 L0.9,7.1 C0.9,7.7 1.2,8 1.6,8 L1.6,8 Z"
                 id="path5941"
                 style="fill:#00acd0;fill-opacity:1" />
              <path
                 d="M11.5,8.1 C13.5,8.1 15,6.4 15,4.4 L15,4.4 C15,2.3 13.6,0.7 11.5,0.7 C9.5,0.7 8,2.4 8,4.4 L8,4.4 C8,6.4 9.5,8.1 11.5,8.1 L11.5,8.1 Z M9.6,4.4 C9.6,3.1 10.4,2.2 11.6,2.2 C12.7,2.2 13.6,3.2 13.6,4.5 L13.6,4.5 C13.6,5.8 12.8,6.7 11.6,6.7 C10.4,6.6 9.6,5.6 9.6,4.4 L9.6,4.4 L9.6,4.4 Z"
                 id="path5943"
                 style="fill:#00acd0;fill-opacity:1" />
              <path
                 d="M17.1,8 L18.9,8 C21,8 22.4,6.4 22.4,4.4 L22.4,4.4 C22.4,2.4 21,0.8 18.9,0.8 L17.1,0.8 C16.7,0.8 16.4,1.1 16.4,1.6 L16.4,7.1 C16.4,7.6 16.7,8 17.1,8 L17.1,8 Z M17.8,2.2 L18.9,2.2 C20.1,2.2 20.9,3.1 20.9,4.4 L20.9,4.4 C20.9,5.7 20.1,6.6 18.9,6.6 L17.8,6.6 L17.8,2.2 L17.8,2.2 Z"
                 id="path5945"
                 style="fill:#00acd0;fill-opacity:1" />
              <path
                 d="M24.4,8 L28.1,8 C28.4,8 28.7,7.7 28.7,7.3 C28.7,6.9 28.4,6.6 28.1,6.6 L25.1,6.6 L25.1,5 L27.6,5 C27.9,5 28.2,4.7 28.2,4.3 C28.2,3.9 27.9,3.6 27.6,3.6 L25.1,3.6 L25.1,2.1 L28,2.1 C28.3,2.1 28.6,1.8 28.6,1.4 C28.6,1 28.3,0.7 28,0.7 L24.4,0.7 C24,0.7 23.7,1 23.7,1.5 L23.7,7.1 C23.7,7.6 24,8 24.4,8 L24.4,8 Z"
                 id="path5947"
                 style="fill:#00acd0;fill-opacity:1" />
              <path
                 d="M29.9,7.2 C30.6,7.8 31.5,8.1 32.4,8.1 C33.8,8.1 34.8,7.3 34.8,5.9 L34.8,5.9 C34.8,4.6 34.1,4.1 32.7,3.7 C31.6,3.4 31.3,3.2 31.3,2.8 L31.3,2.8 C31.3,2.5 31.6,2.1 32.1,2.1 C32.5,2.1 33,2.3 33.5,2.6 C33.6,2.7 33.7,2.7 33.8,2.7 C34.2,2.7 34.5,2.4 34.5,2 C34.5,1.7 34.4,1.5 34.2,1.3 C33.6,0.9 32.9,0.6 32.1,0.6 C30.8,0.6 29.8,1.5 29.8,2.8 L29.8,2.8 C29.8,4.2 30.6,4.6 32,5 C33.1,5.3 33.3,5.5 33.3,5.9 L33.3,5.9 C33.3,6.3 33,6.6 32.4,6.6 C31.8,6.6 31.2,6.3 30.7,5.9 C30.6,5.8 30.5,5.7 30.3,5.7 C29.9,5.7 29.6,6 29.6,6.4 C29.6,6.9 29.8,7.1 29.9,7.2 L29.9,7.2 Z"
                 id="path5949"
                 style="fill:#00acd0;fill-opacity:1" />
              <path
                 d="M39.1,8.1 C40.1,8.1 40.8,7.8 41.4,7.2 C41.5,7.1 41.6,6.9 41.6,6.7 C41.6,6.3 41.3,6 40.9,6 C40.8,6 40.6,6.1 40.5,6.2 C40.1,6.6 39.7,6.7 39.1,6.7 C38,6.7 37.2,5.7 37.2,4.4 L37.2,4.4 C37.2,3.1 38,2.2 39.1,2.2 C39.6,2.2 40,2.4 40.4,2.7 C40.5,2.8 40.6,2.9 40.8,2.9 C41.2,2.9 41.5,2.6 41.5,2.1 C41.5,1.8 41.4,1.6 41.2,1.4 C40.7,1 40,0.7 39,0.7 C37,0.7 35.6,2.4 35.6,4.4 L35.6,4.4 C35.8,6.4 37.3,8.1 39.1,8.1 L39.1,8.1 Z"
                 id="path5951"
                 style="fill:#00acd0;fill-opacity:1" />
              <path
                 d="M43.8,8 C44.2,8 44.5,7.7 44.5,7.2 L44.5,5 L47.2,5 L47.2,7.2 C47.2,7.6 47.5,8 47.9,8 C48.3,8 48.6,7.7 48.6,7.2 L48.6,1.5 C48.6,1.1 48.3,0.7 47.9,0.7 C47.5,0.7 47.2,1 47.2,1.5 L47.2,3.6 L44.5,3.6 L44.5,1.5 C44.5,1.1 44.2,0.7 43.8,0.7 C43.4,0.7 43.1,1 43.1,1.5 L43.1,7.2 C43,7.7 43.3,8 43.8,8 L43.8,8 Z"
                 id="path5953"
                 style="fill:#00acd0;fill-opacity:1" />
              <path
                 d="M53.4,8.1 C55.4,8.1 56.9,6.4 56.9,4.4 L56.9,4.4 C56.9,2.3 55.5,0.7 53.4,0.7 C51.4,0.7 49.9,2.4 49.9,4.4 L49.9,4.4 C49.9,6.4 51.4,8.1 53.4,8.1 L53.4,8.1 Z M51.4,4.4 C51.4,3.1 52.2,2.2 53.4,2.2 C54.5,2.2 55.4,3.2 55.4,4.5 L55.4,4.5 C55.4,5.8 54.6,6.7 53.4,6.7 C52.3,6.6 51.4,5.6 51.4,4.4 L51.4,4.4 L51.4,4.4 Z"
                 id="path5955"
                 style="fill:#00acd0;fill-opacity:1" />
              <path
                 d="M61.4,8.1 C63.4,8.1 64.9,6.4 64.9,4.4 L64.9,4.4 C64.9,2.3 63.5,0.7 61.4,0.7 C59.4,0.7 57.9,2.4 57.9,4.4 L57.9,4.4 C57.9,6.4 59.4,8.1 61.4,8.1 L61.4,8.1 Z M59.4,4.4 C59.4,3.1 60.2,2.2 61.4,2.2 C62.5,2.2 63.4,3.2 63.4,4.5 L63.4,4.5 C63.4,5.8 62.6,6.7 61.4,6.7 C60.3,6.6 59.4,5.6 59.4,4.4 L59.4,4.4 L59.4,4.4 Z"
                 id="path5957"
                 style="fill:#00acd0;fill-opacity:1" />
              <path
                 d="M67,8 L70.4,8 C70.7,8 71,7.7 71,7.3 C71,6.9 70.7,6.6 70.4,6.6 L67.7,6.6 L67.7,1.6 C67.7,1.2 67.4,0.8 67,0.8 C66.6,0.8 66.3,1.1 66.3,1.6 L66.3,7.2 C66.2,7.6 66.6,8 67,8 L67,8 Z"
                 id="path5959"
                 style="fill:#00acd0;fill-opacity:1" />
            </g>
          </g>
          <g
             transform="translate(43.000000, 166.000000)"
             id="g5961"
             style="fill:#e95a78;fill-opacity:1">
            <path
               d="M87.8,12.1 C87.5,11.6 86.9,11.4 86.4,11.7 L50.4,32.5 L65.7,12.9 C66,12.5 66,11.8 65.5,11.5 C65.1,11.2 64.4,11.2 64.1,11.7 L47.4,33.1 L47.4,12.2 C47.4,11.7 47,11.2 46.4,11.2 C45.8,11.2 45.4,11.6 45.4,12.2 L45.4,33.1 L28.7,11.7 C28.4,11.3 27.7,11.2 27.3,11.5 C26.9,11.8 26.8,12.5 27.1,12.9 L42.4,32.5 L5.6,11.3 C5.1,11 4.5,11.2 4.2,11.7 C3.9,12.2 4.1,12.8 4.6,13.1 L45.9,36.9 L46,36.9 C46.1,36.9 46.1,37 46.1,37 L46.2,37 L46.3,37 L46.4,37 C46.5,37 46.6,37.1 46.6,37.1 L46.6,37.1 C46.7,37.1 46.8,37.1 46.8,37 L46.9,37 L47,37 C47.1,37 47.1,36.9 47.1,36.9 L47.2,36.9 L87.8,13.5 C87.9,13.2 88.1,12.6 87.8,12.1 L87.8,12.1 Z"
               id="path5963"
               style="fill:#e95a78;fill-opacity:1" />
            <circle
               id="Oval"
               cx="90.5"
               cy="10.2"
               r="1.3"
               style="fill:#e95a78;fill-opacity:1" />
            <circle
               id="circle5966"
               cx="1.6"
               cy="10.2"
               r="1.3"
               style="fill:#e95a78;fill-opacity:1" />
          </g>
          <g
             id="g7239"
             style="fill:#00acd0;fill-opacity:1"
             transform="translate(0,1.5381356)">
            <text
               transform="matrix(0.81915204,-0.57357644,0.57357644,0.81915204,0,0)"
               style="font-weight:bold;font-size:10.93075943px;font-family:'Varela Round', sans-serif;fill:#00acd0;fill-opacity:1"
               font-size="16"
               y="182.93025"
               x="-49.441387"
               id="letter-left">W</text>
            <text
               font-size="16"
               style="font-weight:bold;font-size:10.93075943px;font-family:'Varela Round', sans-serif;fill:#00acd0;fill-opacity:1"
               y="172.02388"
               x="86.254433"
               id="letter-middle">L</text>
            <text
               transform="matrix(0.81915204,0.57357644,-0.57357644,0.81915204,0,0)"
               font-size="16"
               style="font-weight:bold;font-size:10.93075943px;font-family:'Varela Round', sans-serif;fill:#00acd0;fill-opacity:1"
               y="79.788078"
               x="185.41379"
               id="letter-right">G</text>
          </g>
        </g>
      </g>
    </g>
  </g>
</svg>
