<?xml version="1.0" encoding="UTF-8" standalone="no"?>
<svg
   xmlns:sketch="http://www.bohemiancoding.com/sketch/ns"
   xmlns:dc="http://purl.org/dc/elements/1.1/"
   xmlns:cc="http://creativecommons.org/ns#"
   xmlns:rdf="http://www.w3.org/1999/02/22-rdf-syntax-ns#"
   xmlns:svg="http://www.w3.org/2000/svg"
   xmlns="http://www.w3.org/2000/svg"
   xmlns:sodipodi="http://sodipodi.sourceforge.net/DTD/sodipodi-0.dtd"
   xmlns:inkscape="http://www.inkscape.org/namespaces/inkscape"
   width="210px"
   height="242px"
   viewBox="0 0 210 242"
   version="1.1"
   id="svg5801"
   inkscape:version="0.91 r13725"
   sodipodi:docname="nodeschool-wellington6.svg">
  <metadata
     id="metadata5978">
    <rdf:RDF>
      <cc:Work
         rdf:about="">
        <dc:format>image/svg+xml</dc:format>
        <dc:type
           rdf:resource="http://purl.org/dc/dcmitype/StillImage" />
        <dc:title>Group</dc:title>
      </cc:Work>
    </rdf:RDF>
  </metadata>
  <sodipodi:namedview
     pagecolor="#ffffff"
     bordercolor="#666666"
     borderopacity="1"
     objecttolerance="10"
     gridtolerance="10"
     guidetolerance="10"
     inkscape:pageopacity="0"
     inkscape:pageshadow="2"
     inkscape:window-width="1366"
     inkscape:window-height="721"
     id="namedview5976"
     showgrid="false"
     inkscape:zoom="1.9504132"
     inkscape:cx="86.8403"
     inkscape:cy="121"
     inkscape:window-x="-2"
     inkscape:window-y="24"
     inkscape:window-maximized="1"
     inkscape:current-layer="Group"
     showguides="true">
    <inkscape:grid
       type="xygrid"
       id="grid6306" />
  </sodipodi:namedview>
  <!-- Generator: Sketch 3.3.2 (12043) - http://www.bohemiancoding.com/sketch -->
  <title
     id="title5803">Group</title>
  <desc
     id="desc5805">Created with Sketch.</desc>
  <defs
     id="defs5807" />
  <g
     id="Page-1"
     stroke="none"
     stroke-width="1"
     fill="none"
     fill-rule="evenodd"
     sketch:type="MSPage">
    <g
       id="template_toronto_COLOR"
       sketch:type="MSLayerGroup"
       transform="translate(-252.000000, 0.000000)">
      <g
         id="Group"
         transform="translate(252.000000, 0.000000)"
         sketch:type="MSShapeGroup">
        <g
           style="fill:#b5b5b5;fill-opacity:1"
           id="g7151"
           transform="matrix(1.0666824,0,0,1.0666824,16.756943,8.0490716)">
          <g
             id="g6528"
             transform="matrix(0.65548672,0,0,0.65548672,-14.628887,88.542591)"
             style="fill:#b5b5b5;fill-opacity:1">
            <g
               id="g6536"
               style="fill:#b5b5b5;fill-opacity:1">
              <g
                 id="g6538"
                 style="fill:#b5b5b5;fill-opacity:1">
                <path
                   id="path6540"
                   d="M 50.988,35.851 7,35.851 c -1.104,0 -2,-0.896 -2,-2 0,-1.104 0.896,-2 2,-2 l 43.988,0 c 5.682,0 12.316,-2.353 12.316,-8.983 0,-7.366 -5.088,-8.979 -7.048,-8.979 -2.702,0 -7.284,1.283 -7.313,6.092 -0.007,1.101 -0.901,1.988 -2,1.988 -0.004,0 -0.009,0 -0.013,0 -1.105,-0.007 -1.995,-0.908 -1.988,-2.012 0.041,-6.609 5.723,-10.067 11.313,-10.067 4.271,0 11.048,3.523 11.048,12.979 0.002,7.764 -6.555,12.982 -16.315,12.982 z"
                   inkscape:connector-curvature="0"
                   style="fill:#b5b5b5;fill-opacity:1" />
              </g>
            </g>
            <g
               id="g6530"
               style="fill:#b5b5b5;fill-opacity:1">
              <g
                 id="g6532"
                 style="fill:#b5b5b5;fill-opacity:1">
                <path
                   id="path6534"
                   d="M 79.692,46.831 7,46.831 c -1.104,0 -2,-0.896 -2,-2 0,-1.104 0.896,-2 2,-2 l 72.692,0 c 5.682,0 12.316,-2.353 12.316,-8.983 0,-7.366 -5.088,-8.979 -7.048,-8.979 -2.702,0 -7.283,1.283 -7.313,6.092 -0.007,1.101 -0.901,1.988 -2,1.988 -0.004,0 -0.008,0 -0.013,0 C 74.53,32.942 73.64,32.041 73.647,30.937 73.688,24.328 79.37,20.87 84.96,20.87 c 4.271,0 11.048,3.523 11.048,12.979 0.001,7.764 -6.556,12.982 -16.316,12.982 z"
                   inkscape:connector-curvature="0"
                   style="fill:#b5b5b5;fill-opacity:1" />
              </g>
            </g>
            <g
               id="g6542"
               style="fill:#b5b5b5;fill-opacity:1">
              <g
                 id="g6544"
                 style="fill:#b5b5b5;fill-opacity:1">
                <path
                   id="path6546"
                   d="m 84.961,80.02 c -5.591,0 -11.272,-3.457 -11.313,-10.065 -0.007,-1.104 0.883,-2.006 1.987,-2.013 0.005,0 0.009,0 0.013,0 1.099,0 1.993,0.887 2,1.987 0.03,4.808 4.611,6.091 7.313,6.091 1.96,0 7.048,-1.613 7.048,-8.979 0,-6.63 -6.635,-8.982 -12.316,-8.982 L 7,58.059 c -1.104,0 -2,-0.896 -2,-2 0,-1.104 0.896,-2 2,-2 l 72.692,0 c 9.76,0 16.316,5.217 16.316,12.982 0.001,9.455 -6.776,12.979 -11.047,12.979 z"
                   inkscape:connector-curvature="0"
                   style="fill:#b5b5b5;fill-opacity:1" />
              </g>
            </g>
            <g
               id="g6548"
               style="fill:#b5b5b5;fill-opacity:1">
              <g
                 id="g6550"
                 style="fill:#b5b5b5;fill-opacity:1">
                <path
                   id="path6552"
                   d="m 56.257,92 c -5.591,0 -11.272,-3.457 -11.313,-10.065 -0.007,-1.104 0.883,-2.006 1.988,-2.013 0.004,0 0.008,0 0.013,0 1.099,0 1.993,0.887 2,1.987 0.028,4.808 4.61,6.091 7.312,6.091 1.96,0 7.048,-1.613 7.048,-8.979 0,-6.63 -6.635,-8.982 -12.316,-8.982 L 7,70.039 c -1.104,0 -2,-0.896 -2,-2 0,-1.104 0.896,-2 2,-2 l 43.988,0 c 9.76,0 16.316,5.217 16.316,12.982 C 67.305,88.477 60.528,92 56.257,92 Z"
                   inkscape:connector-curvature="0"
                   style="fill:#b5b5b5;fill-opacity:1" />
              </g>
            </g>
          </g>
        </g>
        <g
           id="g7213"
           transform="matrix(0.95841732,0,0,0.95841732,4.6299151,-0.20918542)">
          <g
             id="BASE"
             transform="matrix(0.91767847,0,0,0.91767847,33.365001,69.33916)">
            <circle
               id="circle3480"
               r="8.8999996"
               cy="13.7"
               cx="78.099998"
               stroke-miterlimit="10"
               style="fill:#e95a78;stroke:#e95a78;stroke-width:2.3441999;stroke-linecap:square;stroke-miterlimit:10" />
            <polygon
               id="polygon3482"
               points="84,25 81.5,31 79.3,29.1 78.2,29.1 76.8,29.1 75,30.9 71.8,25 77.8,15.3 "
               stroke-miterlimit="10"
               style="fill:#ffffff;stroke:#ffffff;stroke-width:3.28189993;stroke-linecap:round;stroke-linejoin:round;stroke-miterlimit:10" />
            <polygon
               id="polygon3484"
               points="77.9,126.9 61.7,121.3 58.2,116.6 58.2,45 63.2,38.1 76.4,32.8 80.1,32.8 95.1,38.8 100.4,44.7 100.4,117.8 97.6,121 "
               stroke-miterlimit="10"
               style="fill:none;stroke:#b5b5b5;stroke-width:2.3441999;stroke-linecap:round;stroke-linejoin:round;stroke-miterlimit:10" />
            <polygon
               id="polygon3486"
               points="81.1,22.8 81.1,32.8 78.9,30.9 77.8,30.9 76.4,30.9 74.5,32.8 74.5,22.8 77.8,17.2 "
               stroke-miterlimit="10"
               style="fill:#b5b5b5;stroke:#b5b5b5;stroke-width:2.3441999;stroke-linecap:round;stroke-linejoin:round;stroke-miterlimit:10" />
            <line
               id="line3488"
               y2="30.9"
               x2="78.199997"
               y1="127.8"
               x1="78.199997"
               stroke-miterlimit="10"
               style="fill:#231f20;stroke:#b5b5b5;stroke-width:2.3441999;stroke-linecap:round;stroke-linejoin:round;stroke-miterlimit:10" />
            <line
               id="line3490"
               y2="80.599998"
               x2="99.199997"
               y1="80.599998"
               x1="59.599998"
               stroke-miterlimit="10"
               style="fill:#231f20;stroke:#b5b5b5;stroke-width:3.75079989;stroke-linecap:round;stroke-linejoin:round;stroke-miterlimit:10" />
          </g>
          <g
             id="yellow3"
             transform="matrix(0.91767847,0,0,0.91767847,33.365001,69.33916)">
            <path
               id="path3471"
               d="m 86.4,90.2 c 0,0 6.6,0.7 11.3,1.1 3.3,0.3 6.9,0.1 7.7,-0.2 0.8,-0.3 0,10.6 0,10.6 0,0 -5,1.7 -8.4,-0.9 C 93.6,98.2 86.1,92.7 86.4,90.2 Z"
               stroke-miterlimit="10"
               inkscape:connector-curvature="0"
               style="fill:#ffa800;stroke:#ffa800;stroke-width:1.40649998;stroke-linecap:round;stroke-linejoin:round;stroke-miterlimit:10" />
          </g>
          <g
             id="yellow2"
             transform="matrix(0.91767847,0,0,0.91767847,33.365001,69.33916)">
            <path
               id="path3474"
               d="m 87.2,62.8 c 0,0 6.7,-2.3 17.7,-5.9 l 0,7 c 0,0 -2.2,4.2 -10.9,2.7 -5.3,-1 -6.8,-3.8 -6.8,-3.8 z"
               stroke-miterlimit="10"
               inkscape:connector-curvature="0"
               style="fill:#ffa800;stroke:#ffa800;stroke-width:1.40649998;stroke-linecap:round;stroke-linejoin:round;stroke-miterlimit:10" />
          </g>
          <g
             id="pink2"
             transform="matrix(0.91767847,0,0,0.91767847,33.365001,69.33916)">
            <path
               id="path3477"
               d="m 82,49.7 0,-9.2 c 0,0 7.3,-0.6 9.2,-1.1 C 93.1,38.9 97,38 97,38 c 0,0 -3.8,9.4 -8.3,10.9 -4.5,1.6 -6.7,0.8 -6.7,0.8 z"
               stroke-miterlimit="10"
               inkscape:connector-curvature="0"
               style="fill:#e95a78;stroke:#e95a78;stroke-width:2.3441999;stroke-linecap:square;stroke-miterlimit:10" />
          </g>
          <g
             id="pink1"
             transform="matrix(0.91767847,0,0,0.91767847,33.365001,69.33916)">
            <path
               id="path3499"
               d="m 53.9,69.2 18,0.6 c 0,0 -3.6,6.6 -6.4,6.6 -2.9,0 -11.5,2.2 -11.6,-7.2 z"
               stroke-miterlimit="10"
               inkscape:connector-curvature="0"
               style="fill:#e95a78;stroke:#e95a78;stroke-width:2.3441999;stroke-linecap:square;stroke-miterlimit:10" />
          </g>
          <g
             id="yellow1"
             transform="matrix(0.91767847,0,0,0.91767847,33.365001,69.33916)">
            <path
               id="path3502"
               d="m 56.2,49.6 c 0,0 17.7,-1.6 18.1,0 0.5,1.6 0,8.3 0,8.3 0,0 -3.8,2.2 -7.2,0 -3.4,-2.2 -10.8,-5.6 -10.9,-8.3 z"
               stroke-miterlimit="10"
               inkscape:connector-curvature="0"
               style="fill:#ffa800;stroke:#ffa800;stroke-width:1.40649998;stroke-linecap:round;stroke-linejoin:round;stroke-miterlimit:10" />
          </g>
          <g
             id="blue2"
             transform="matrix(0.91767847,0,0,0.91767847,33.365001,69.33916)">
            <path
               id="path3505"
               d="m 62.3,85.2 0,9.2 c 0,0 2.3,3.9 5.6,2 3.3,-1.9 5.8,-2.7 9.1,-6.3 3.2,-3.5 6.4,-5.2 5.8,-5.8 -0.6,-0.6 -20.5,0.9 -20.5,0.9 z"
               stroke-miterlimit="10"
               inkscape:connector-curvature="0"
               style="fill:#00acd0;stroke:#00acd0;stroke-width:2.3441999;stroke-linecap:square;stroke-miterlimit:10" />
          </g>
          <g
             id="blue1"
             transform="matrix(0.91767847,0,0,0.91767847,33.365001,69.33916)">
            <path
               id="path3508"
               d="m 62.3,110.1 c 0,0 26,-1.4 34.7,-5.6 2.3,-1.1 0.4,12 0.4,12 0,0 0.6,1.4 -3.9,2.8 -4.5,1.4 -5.2,2.1 -12.4,0.5 -7.8,-1.9 -18.8,-5.7 -18.8,-9.7 z"
               stroke-miterlimit="10"
               inkscape:connector-curvature="0"
               style="fill:#00acd0;stroke:#00acd0;stroke-width:2.3441999;stroke-linecap:square;stroke-miterlimit:10" />
          </g>
        </g>
        <path
           d="M208.1,59.7 L107.2,1.5 C106.1,0.8 104.6,0.8 103.5,1.5 L2.6,59.7 C1.5,60.4 0.8,61.6 0.8,62.9 L0.8,179.4 C0.8,180.7 1.5,182 2.6,182.6 L103.5,240.8 C104.1,241.1 104.7,241.3 105.3,241.3 C105.9,241.3 106.6,241.1 107.1,240.8 L208,182.6 C209.1,181.9 209.8,180.7 209.8,179.4 L209.8,62.9 C209.9,61.6 209.2,60.4 208.1,59.7 L208.1,59.7 Z M202.6,177.3 L105.3,233.4 L8.1,177.3 L8,177.3 L8,65 L105.3,8.9 L202.4,65 L202.6,65.1 L202.6,177.3 L202.6,177.3 Z"
           id="path5813"
           fill="#C0493D"
           style="fill:#ffa800;fill-opacity:1" />
        <path
           inkscape:connector-curvature="0"
           style="fill:#00acd0;fill-opacity:1"
           d="m 72.12371,189.81146 c -0.1,-0.1 -0.2,-0.2 -0.3,-0.4 -0.3,-0.6 -0.1,-1.3 0.5,-1.7 0.5,-0.3 1.1,-0.2 1.5,0.2 l 5.4,4.8 -1.5,-7 c -0.1,-0.6 0.1,-1.2 0.6,-1.5 l 0.2,-0.1 c 0.5,-0.3 1.1,-0.2 1.6,0.2 l 5.3,4.8 -1.5,-7.1 c -0.1,-0.5 0.1,-1.1 0.6,-1.4 0.6,-0.3 1.3,-0.2 1.6,0.4 0.1,0.1 0.1,0.3 0.2,0.5 l 1.7,9.2 c 0.1,0.7 -0.1,1.2 -0.6,1.5 l -0.2,0.1 c -0.5,0.3 -1.1,0.2 -1.6,-0.2 l -5.1,-4.5 1.3,6.7 c 0.1,0.7 -0.1,1.2 -0.6,1.5 l -0.2,0.1 c -0.5,0.3 -1.1,0.2 -1.6,-0.2 l -7.3,-5.9 z"
           id="path4242" />
        <path
           inkscape:connector-curvature="0"
           style="fill:#00acd0;fill-opacity:1"
           d="m 102.14533,183.08814 c 0,-0.7 0.5,-1.2 1.2,-1.2 0.7,0 1.2,0.5 1.2,1.2 l 0,7.8 4.6,0 c 0.6,0 1.1,0.5 1.1,1.1 0,0.6 -0.5,1.1 -1.1,1.1 l -5.8,0 c -0.7,0 -1.2,-0.5 -1.2,-1.2 l 0,-8.8 z"
           id="path4348" />
        <path
           inkscape:connector-curvature="0"
           style="fill:#00acd0;fill-opacity:1"
           d="m 125.84278,185.70934 0,0 c 1.6,-2.8 5.1,-3.8 8,-2.1 1.5,0.8 2.2,1.7 2.8,2.9 0.1,0.3 0.2,0.7 -0.1,1.1 -0.3,0.6 -1.1,0.8 -1.7,0.4 -0.3,-0.2 -0.4,-0.4 -0.5,-0.6 -0.3,-0.8 -0.8,-1.4 -1.7,-1.9 -1.6,-0.9 -3.6,-0.2 -4.5,1.4 l 0,0 c -1,1.8 -0.6,3.8 1.2,4.8 0.8,0.4 1.6,0.7 2.3,0.6 l 0.8,-1.4 -1.4,-0.8 c -0.5,-0.3 -0.7,-0.9 -0.4,-1.5 0.3,-0.6 1,-0.7 1.5,-0.4 l 2.4,1.4 c 0.6,0.3 0.8,1.1 0.5,1.7 l -1.4,2.4 c -0.4,0.6 -0.8,0.9 -1.5,0.9 -1.1,0 -2.5,-0.2 -4,-1 -3.1,-1.8 -4,-5.1 -2.3,-7.9 z"
           id="path4464" />
        <g
           style="fill:#ffa800;fill-opacity:1"
           id="g5817"
           transform="translate(16,73)" />
        <g
           style="fill:#ffa800;fill-opacity:1"
           id="g5829"
           transform="translate(37,180)" />
        <g
           style="fill:#ffa800;fill-opacity:1"
           id="g5835"
           transform="translate(21,74)" />
        <path
           inkscape:connector-curvature="0"
           style="fill:#e95a78;fill-opacity:1"
           id="path5933"
           d="M 147.1,43.3 105.8,19.5 c -0.1,-0.1 -0.1,-0.1 -0.2,-0.1 l 0,0 -0.1,0 -0.1,0 -0.2,0 c 0,0 0,0 -0.1,0 l -0.1,0 -0.2,0 0,0 c -0.1,0 -0.1,0.1 -0.2,0.1 l 0,0 L 64,42.9 c -0.5,0.3 -0.7,0.9 -0.4,1.4 0.3,0.5 0.9,0.7 1.4,0.4 L 101.1,23.9 86,43.4 c -0.3,0.4 -0.3,1.1 0.2,1.4 0.4,0.3 1.1,0.3 1.4,-0.2 l 16.7,-21.4 0,20.9 c 0,0.5 0.4,1 1,1 0.6,0 1,-0.4 1,-1 l 0,-20.9 16.7,21.4 c 0.2,0.3 0.5,0.4 0.8,0.4 0.2,0 0.4,-0.1 0.6,-0.2 0.4,-0.3 0.5,-1 0.2,-1.4 L 109.3,23.8 146.1,45 c 0.2,0.1 0.3,0.1 0.5,0.1 0.3,0 0.7,-0.2 0.9,-0.5 0.2,-0.4 0.1,-1.1 -0.4,-1.3 l 0,0 z" />
        <g
           style="fill:#00acd0;fill-opacity:1"
           id="g5935"
           transform="translate(54,50)">
          <path
             inkscape:connector-curvature="0"
             style="fill:#00acd0;fill-opacity:1"
             id="path5937"
             d="m 102.1,18.3 -101.4,0 0,-18.2 101.4,0 0,18.2 0,0 z m -99.4,-2 97.4,0 0,-14.2 -97.4,0 0,14.2 0,0 z" />
          <g
             style="fill:#00acd0;fill-opacity:1"
             id="g5939"
             transform="translate(16,5)">
            <path
               inkscape:connector-curvature="0"
               style="fill:#00acd0;fill-opacity:1"
               id="path5941"
               d="M 1.6,8 C 2,8 2.3,7.7 2.3,7.2 l 0,-3.9 2.9,4.1 c 0.2,0.3 0.4,0.5 0.7,0.5 l 0,0 c 0.4,0 0.7,-0.3 0.7,-0.8 l 0,-5.7 C 6.6,1 6.3,0.6 5.9,0.6 5.5,0.6 5.2,0.9 5.2,1.4 l 0,3.7 -2.8,-4 C 2.2,0.8 2,0.6 1.7,0.6 l -0.1,0 C 1.2,0.6 0.9,0.9 0.9,1.4 l 0,5.7 C 0.9,7.7 1.2,8 1.6,8 l 0,0 z" />
            <path
               inkscape:connector-curvature="0"
               style="fill:#00acd0;fill-opacity:1"
               id="path5943"
               d="m 11.5,8.1 c 2,0 3.5,-1.7 3.5,-3.7 l 0,0 C 15,2.3 13.6,0.7 11.5,0.7 9.5,0.7 8,2.4 8,4.4 l 0,0 c 0,2 1.5,3.7 3.5,3.7 l 0,0 z M 9.6,4.4 c 0,-1.3 0.8,-2.2 2,-2.2 1.1,0 2,1 2,2.3 l 0,0 c 0,1.3 -0.8,2.2 -2,2.2 -1.2,-0.1 -2,-1.1 -2,-2.3 l 0,0 0,0 z" />
            <path
               inkscape:connector-curvature="0"
               style="fill:#00acd0;fill-opacity:1"
               id="path5945"
               d="m 17.1,8 1.8,0 C 21,8 22.4,6.4 22.4,4.4 l 0,0 c 0,-2 -1.4,-3.6 -3.5,-3.6 l -1.8,0 c -0.4,0 -0.7,0.3 -0.7,0.8 l 0,5.5 c 0,0.5 0.3,0.9 0.7,0.9 l 0,0 z m 0.7,-5.8 1.1,0 c 1.2,0 2,0.9 2,2.2 l 0,0 c 0,1.3 -0.8,2.2 -2,2.2 l -1.1,0 0,-4.4 0,0 z" />
            <path
               inkscape:connector-curvature="0"
               style="fill:#00acd0;fill-opacity:1"
               id="path5947"
               d="m 24.4,8 3.7,0 c 0.3,0 0.6,-0.3 0.6,-0.7 0,-0.4 -0.3,-0.7 -0.6,-0.7 l -3,0 0,-1.6 2.5,0 c 0.3,0 0.6,-0.3 0.6,-0.7 0,-0.4 -0.3,-0.7 -0.6,-0.7 l -2.5,0 0,-1.5 2.9,0 c 0.3,0 0.6,-0.3 0.6,-0.7 C 28.6,1 28.3,0.7 28,0.7 l -3.6,0 C 24,0.7 23.7,1 23.7,1.5 l 0,5.6 C 23.7,7.6 24,8 24.4,8 l 0,0 z" />
            <path
               inkscape:connector-curvature="0"
               style="fill:#00acd0;fill-opacity:1"
               id="path5949"
               d="m 29.9,7.2 c 0.7,0.6 1.6,0.9 2.5,0.9 1.4,0 2.4,-0.8 2.4,-2.2 l 0,0 C 34.8,4.6 34.1,4.1 32.7,3.7 31.6,3.4 31.3,3.2 31.3,2.8 l 0,0 c 0,-0.3 0.3,-0.7 0.8,-0.7 0.4,0 0.9,0.2 1.4,0.5 0.1,0.1 0.2,0.1 0.3,0.1 0.4,0 0.7,-0.3 0.7,-0.7 0,-0.3 -0.1,-0.5 -0.3,-0.7 -0.6,-0.4 -1.3,-0.7 -2.1,-0.7 -1.3,0 -2.3,0.9 -2.3,2.2 l 0,0 c 0,1.4 0.8,1.8 2.2,2.2 1.1,0.3 1.3,0.5 1.3,0.9 l 0,0 c 0,0.4 -0.3,0.7 -0.9,0.7 -0.6,0 -1.2,-0.3 -1.7,-0.7 -0.1,-0.1 -0.2,-0.2 -0.4,-0.2 -0.4,0 -0.7,0.3 -0.7,0.7 0,0.5 0.2,0.7 0.3,0.8 l 0,0 z" />
            <path
               inkscape:connector-curvature="0"
               style="fill:#00acd0;fill-opacity:1"
               id="path5951"
               d="m 39.1,8.1 c 1,0 1.7,-0.3 2.3,-0.9 C 41.5,7.1 41.6,6.9 41.6,6.7 41.6,6.3 41.3,6 40.9,6 40.8,6 40.6,6.1 40.5,6.2 40.1,6.6 39.7,6.7 39.1,6.7 38,6.7 37.2,5.7 37.2,4.4 l 0,0 c 0,-1.3 0.8,-2.2 1.9,-2.2 0.5,0 0.9,0.2 1.3,0.5 0.1,0.1 0.2,0.2 0.4,0.2 0.4,0 0.7,-0.3 0.7,-0.8 C 41.5,1.8 41.4,1.6 41.2,1.4 40.7,1 40,0.7 39,0.7 c -2,0 -3.4,1.7 -3.4,3.7 l 0,0 c 0.2,2 1.7,3.7 3.5,3.7 l 0,0 z" />
            <path
               inkscape:connector-curvature="0"
               style="fill:#00acd0;fill-opacity:1"
               id="path5953"
               d="m 43.8,8 c 0.4,0 0.7,-0.3 0.7,-0.8 l 0,-2.2 2.7,0 0,2.2 c 0,0.4 0.3,0.8 0.7,0.8 0.4,0 0.7,-0.3 0.7,-0.8 l 0,-5.7 c 0,-0.4 -0.3,-0.8 -0.7,-0.8 -0.4,0 -0.7,0.3 -0.7,0.8 l 0,2.1 -2.7,0 0,-2.1 c 0,-0.4 -0.3,-0.8 -0.7,-0.8 -0.4,0 -0.7,0.3 -0.7,0.8 l 0,5.7 C 43,7.7 43.3,8 43.8,8 l 0,0 z" />
            <path
               inkscape:connector-curvature="0"
               style="fill:#00acd0;fill-opacity:1"
               id="path5955"
               d="m 53.4,8.1 c 2,0 3.5,-1.7 3.5,-3.7 l 0,0 c 0,-2.1 -1.4,-3.7 -3.5,-3.7 -2,0 -3.5,1.7 -3.5,3.7 l 0,0 c 0,2 1.5,3.7 3.5,3.7 l 0,0 z m -2,-3.7 c 0,-1.3 0.8,-2.2 2,-2.2 1.1,0 2,1 2,2.3 l 0,0 c 0,1.3 -0.8,2.2 -2,2.2 -1.1,-0.1 -2,-1.1 -2,-2.3 l 0,0 0,0 z" />
            <path
               inkscape:connector-curvature="0"
               style="fill:#00acd0;fill-opacity:1"
               id="path5957"
               d="m 61.4,8.1 c 2,0 3.5,-1.7 3.5,-3.7 l 0,0 c 0,-2.1 -1.4,-3.7 -3.5,-3.7 -2,0 -3.5,1.7 -3.5,3.7 l 0,0 c 0,2 1.5,3.7 3.5,3.7 l 0,0 z m -2,-3.7 c 0,-1.3 0.8,-2.2 2,-2.2 1.1,0 2,1 2,2.3 l 0,0 c 0,1.3 -0.8,2.2 -2,2.2 -1.1,-0.1 -2,-1.1 -2,-2.3 l 0,0 0,0 z" />
            <path
               inkscape:connector-curvature="0"
               style="fill:#00acd0;fill-opacity:1"
               id="path5959"
               d="m 67,8 3.4,0 C 70.7,8 71,7.7 71,7.3 71,6.9 70.7,6.6 70.4,6.6 l -2.7,0 0,-5 c 0,-0.4 -0.3,-0.8 -0.7,-0.8 -0.4,0 -0.7,0.3 -0.7,0.8 l 0,5.6 C 66.2,7.6 66.6,8 67,8 l 0,0 z" />
          </g>
        </g>
        <g
           style="fill:#e95a78;fill-opacity:1"
           id="g5961"
           transform="translate(59,185)">
          <path
             inkscape:connector-curvature="0"
             style="fill:#e95a78;fill-opacity:1"
             id="path5963"
             d="M 87.8,12.1 C 87.5,11.6 86.9,11.4 86.4,11.7 L 50.4,32.5 65.7,12.9 C 66,12.5 66,11.8 65.5,11.5 65.1,11.2 64.4,11.2 64.1,11.7 l -16.7,21.4 0,-20.9 c 0,-0.5 -0.4,-1 -1,-1 -0.6,0 -1,0.4 -1,1 l 0,20.9 -16.7,-21.4 c -0.3,-0.4 -1,-0.5 -1.4,-0.2 -0.4,0.3 -0.5,1 -0.2,1.4 L 42.4,32.5 5.6,11.3 C 5.1,11 4.5,11.2 4.2,11.7 3.9,12.2 4.1,12.8 4.6,13.1 l 41.3,23.8 0.1,0 c 0.1,0 0.1,0.1 0.1,0.1 l 0.1,0 0.1,0 0.1,0 c 0.1,0 0.2,0.1 0.2,0.1 l 0,0 c 0.1,0 0.2,0 0.2,-0.1 l 0.1,0 0.1,0 c 0.1,0 0.1,-0.1 0.1,-0.1 l 0.1,0 40.6,-23.4 c 0.1,-0.3 0.3,-0.9 0,-1.4 l 0,0 z" />
          <circle
             style="fill:#e95a78;fill-opacity:1"
             r="1.3"
             cy="10.2"
             cx="90.5"
             id="Oval" />
          <circle
             style="fill:#e95a78;fill-opacity:1"
             r="1.3"
             cy="10.2"
             cx="1.6"
             id="circle5966" />
        </g>
        <circle
           style="opacity:1;fill:none;fill-opacity:1;fill-rule:evenodd;stroke:#b5b5b5;stroke-width:3.02370524;stroke-linecap:butt;stroke-linejoin:round;stroke-miterlimit:5;stroke-dasharray:none;stroke-opacity:1"
           id="path7222"
           cx="159.05042"
           cy="136.27159"
           r="12.488148" />
        <ellipse
           style="opacity:1;fill:none;fill-opacity:1;fill-rule:evenodd;stroke:#b5b5b5;stroke-width:1.99967468;stroke-linecap:butt;stroke-linejoin:round;stroke-miterlimit:5;stroke-dasharray:none;stroke-opacity:1"
           id="path7224"
           cx="172.78278"
           cy="104.59437"
           rx="6.0001631"
           ry="6.0001626" />
        <circle
           style="opacity:1;fill:none;fill-opacity:1;fill-rule:evenodd;stroke:#b5b5b5;stroke-width:1.64990258;stroke-linecap:butt;stroke-linejoin:round;stroke-miterlimit:5;stroke-dasharray:none;stroke-opacity:1"
           id="path7226"
           cx="181.85323"
           cy="85.26963"
           r="2.6750488" />
      </g>
    </g>
  </g>
</svg>
