<?xml version="1.0" encoding="UTF-8" standalone="no"?>
<svg width="210px" height="242px" viewBox="0 0 210 242" version="1.1" xmlns="http://www.w3.org/2000/svg" xmlns:xlink="http://www.w3.org/1999/xlink" xmlns:sketch="http://www.bohemiancoding.com/sketch/ns">
    <!-- Generator: Sketch 3.3.2 (12043) - http://www.bohemiancoding.com/sketch -->
    <title>path5813</title>
    <desc>Created with Sketch.</desc>
    <defs>
        <filter x="-50%" y="-50%" width="200%" height="200%" filterUnits="objectBoundingBox" id="filter-1">
            <feOffset dx="0" dy="1" in="SourceAlpha" result="shadowOffsetInner1"></feOffset>
            <feGaussianBlur stdDeviation="1.5" in="shadowOffsetInner1" result="shadowBlurInner1"></feGaussianBlur>
            <feComposite in="shadowBlurInner1" in2="SourceAlpha" operator="arithmetic" k2="-1" k3="1" result="shadowInnerInner1"></feComposite>
            <feColorMatrix values="0 0 0 0 0   0 0 0 0 0   0 0 0 0 0  0 0 0 0.35 0" in="shadowInnerInner1" type="matrix" result="shadowMatrixInner1"></feColorMatrix>
            <feMerge>
                <feMergeNode in="SourceGraphic"></feMergeNode>
                <feMergeNode in="shadowMatrixInner1"></feMergeNode>
            </feMerge>
        </filter>
    </defs>
    <g id="Page-1" stroke="none" stroke-width="1" fill="none" fill-rule="evenodd" sketch:type="MSPage">
        <g id="download" sketch:type="MSLayerGroup" transform="translate(-19.000000, 0.000000)">
            <g id="Page-1">
                <g id="template_toronto_COLOR">
                    <g id="Group">
                        <g id="Wind" transform="translate(0.968791, 62.975387)" sketch:type="MSShapeGroup">
                            <g id="g6528" transform="translate(0.691793, 0.471443)">
                                <g id="g6536" transform="translate(1.000000, 1.217981)" fill="#B5B5B5">
                                    <g id="g6538" transform="translate(1.000000, 0.000000)">
                                        <path d="M64.005,0 C57.081,0 50.044,4.281 49.993,12.464 C49.984,13.831 51.087,14.946 52.455,14.955 L52.471,14.955 C53.833,14.955 54.94,13.857 54.949,12.493 C54.984,6.539 60.659,4.951 64.007,4.951 C66.434,4.951 72.736,6.948 72.736,16.068 C72.736,24.277 64.519,27.19 57.481,27.19 L17.127,27.19 C17.225,27.58 17.291,27.981 17.284,28.4 C17.271,29.076 17.177,29.791 17,30.486 C17.137,31.009 17.219,31.549 17.192,32.142 L57.481,32.142 C69.57,32.142 77.692,25.682 77.689,16.069 C77.689,4.361 69.295,0 64.005,0" id="Imported-Layers"></path>
                                    </g>
                                </g>
                                <g id="g6530" transform="translate(116.000000, 27.670818)" fill="#B5B5B5">
                                    <g id="g6532">
                                        <path d="M79.2469739,28.4672463 L2.12196685,28.4672463 C0.950641148,28.4672463 0,27.5166051 0,26.3452794 C0,25.1739537 0.950641148,24.2233126 2.12196685,24.2233126 L79.2469739,24.2233126 C85.2754817,24.2233126 92.3140458,21.7268186 92.3140458,14.6924985 C92.3140458,6.87729455 86.9157621,5.16592829 84.8362346,5.16592829 C81.9694574,5.16592829 77.1090923,6.52717002 77.0772628,11.6294393 C77.0698359,12.7975821 76.1213167,13.7386744 74.955296,13.7386744 L74.9415032,13.7386744 C73.7701775,13.7312475 72.8259022,12.7753014 72.8333291,11.6039757 C72.8768294,4.59193626 78.9053372,0.923055579 84.8362346,0.923055579 C89.3676948,0.923055579 96.5579795,4.66090018 96.5579795,14.6935594 C96.5590404,22.9310347 89.6021721,28.4672463 79.2469739,28.4672463 L79.2469739,28.4672463 Z" id="path6534"></path>
                                    </g>
                                </g>
                                <g id="g6530-copy" transform="translate(119.000000, 26.000000)" fill="#B5B5B5">
                                    <g id="g6532">
                                        <path d="M45.1398892,16.2152355 L1.20869408,16.2152355 C0.541494949,16.2152355 0,15.6737405 0,15.0065414 C0,14.3393422 0.541494949,13.7978473 1.20869408,13.7978473 L45.1398892,13.7978473 C48.5737891,13.7978473 52.5830274,12.3758187 52.5830274,8.36899783 C52.5830274,3.91737752 49.5081096,2.94256574 48.3235894,2.94256574 C46.6906437,2.94256574 43.9221299,3.717943 43.9039995,6.62424792 C43.8997691,7.28963401 43.3594828,7.82568984 42.6953054,7.82568984 L42.6874489,7.82568984 C42.0202498,7.82145941 41.4823809,7.27694272 41.4866113,6.60974359 C41.5113896,2.61561399 44.9452895,0.525781926 48.3235894,0.525781926 C50.9047556,0.525781926 55.0004155,2.65489655 55.0004155,8.36960217 C55.0010199,13.0617526 51.0383163,16.2152355 45.1398892,16.2152355 L45.1398892,16.2152355 Z" id="path6534"></path>
                                    </g>
                                </g>
                                <g id="g6542" transform="translate(117.000000, 63.744254)" fill="#B5B5B5">
                                    <g id="g6544">
                                        <path d="M84.8372956,27.6067887 C78.9053372,27.6067887 72.8778904,23.938969 72.8343901,16.9279905 C72.8269632,15.7566648 73.7712385,14.7996578 74.9425642,14.7922309 L74.9563569,14.7922309 C76.1223777,14.7922309 77.0708969,15.7333232 77.0783238,16.900405 C77.1101533,22.0016133 81.9705184,23.362855 84.8372956,23.362855 C86.9168231,23.362855 92.3151067,21.6514887 92.3151067,13.8362848 C92.3151067,6.80196473 85.2754817,4.30653172 79.2480349,4.30653172 L2.12196685,4.30653172 C0.950641148,4.30653172 0,3.35589057 0,2.18456487 C0,1.01323917 0.950641148,0.062598022 2.12196685,0.062598022 L79.2469739,0.062598022 C89.6021721,0.062598022 96.5579795,5.59774855 96.5579795,13.8362848 C96.5590404,23.8678831 89.3687558,27.6067887 84.8372956,27.6067887 L84.8372956,27.6067887 Z" id="path6546"></path>
                                    </g>
                                </g>
                                <g id="g6542-copy" transform="translate(119.000000, 76.744254)" fill="#B5B5B5">
                                    <g id="g6544">
                                        <path d="M48.1416926,15.6657225 C44.775549,15.6657225 41.3552197,13.584385 41.330535,9.60594171 C41.3263206,8.94126232 41.8621581,8.39819999 42.5268375,8.39398554 L42.5346644,8.39398554 C43.1963334,8.39398554 43.7345792,8.9280169 43.7387937,9.59028803 C43.7568556,12.4850149 46.5149138,13.2574639 48.1416926,13.2574639 C49.3217393,13.2574639 52.3850443,12.2863336 52.3850443,7.85152528 C52.3850443,3.85983656 48.3903453,2.44378047 44.9700159,2.44378047 L1.20412933,2.44378047 C0.539449939,2.44378047 0,1.90433053 0,1.23965114 C0,0.574971754 0.539449939,0.0355218152 1.20412933,0.0355218152 L44.9694139,0.0355218152 C50.845565,0.0355218152 54.7927009,3.17649317 54.7927009,7.85152528 C54.793303,13.5440467 50.7131107,15.6657225 48.1416926,15.6657225 L48.1416926,15.6657225 Z" id="path6546"></path>
                                    </g>
                                </g>
                                <g id="g6548" transform="translate(2.000000, 0.476055)" fill="#B5B5B5">
                                    <path d="M64.005,83.7419258 C57.081,83.7419258 50.044,88.0229258 49.993,96.2059258 C49.984,97.5729258 51.087,98.6879258 52.455,98.6969258 L52.471,98.6969258 C53.833,98.6969258 54.94,97.5989258 54.949,96.2349258 C54.984,90.2809258 60.659,88.6929258 64.007,88.6929258 C66.434,88.6929258 72.736,90.6899258 72.736,99.8099258 C72.736,108.018926 64.519,110.931926 57.481,110.931926 L17.127,110.931926 C17.225,111.321926 17.291,111.722926 17.284,112.141926 C17.271,112.817926 17.177,113.532926 17,114.227926 C17.137,114.750926 17.219,115.290926 17.192,115.883926 L57.481,115.883926 C69.57,115.883926 77.692,109.423926 77.689,99.8109258 C77.689,88.1029258 69.295,83.7419258 64.005,83.7419258" id="Imported-Layers-Copy" transform="translate(47.500000, 100.241926) scale(1, -1) translate(-47.500000, -100.241926) "></path>
                                </g>
                                <path d="M26.8394156,54 L114.839416,54" id="Line" stroke="#B5B5B5" stroke-width="4" stroke-linecap="square" opacity="0.65"></path>
                                <path d="M26.8394156,66 L115.839416,66" id="Line-Copy" stroke="#B5B5B5" stroke-width="4" stroke-linecap="square" opacity="0.65"></path>
                                <path d="M25.8394156,78 L118.839416,78" id="Line-Copy-2" stroke="#B5B5B5" stroke-width="2" stroke-linecap="square" opacity="0.35"></path>
                                <path d="M25.8394156,41 L118.839416,41" id="Line-Copy-3" stroke="#B5B5B5" stroke-width="2" stroke-linecap="square" opacity="0.35"></path>
                            </g>
                        </g>
                        <g id="Buckets" transform="translate(92.691229, 22.000000)" sketch:type="MSShapeGroup">
                            <g id="BASE" transform="translate(6.426740, 0.013331)">
                                <ellipse id="circle3480" stroke="#E95A78" stroke-width="1.92758788" fill="#E95A78" cx="25.8244613" cy="12.0177933" rx="11.4347123" ry="11.0266345"></ellipse>
                                <path d="M30.1927812,33.4515895 L27.3662229,31.0975887 L25.9529438,31.0975887 L24.1542249,31.0975887 L21.8415864,33.3276947 L17.7302289,26.0179029 L25.4390241,14.0001097 L33.4047791,26.0179029 L30.1927812,33.4515895 Z" id="polygon3482" stroke="#FFFFFF" stroke-width="2.69863954" fill="#FFFFFF"></path>
                                <path d="M54.475486,140.992255 L50.8780482,144.956888 L25.567504,152.266679 L4.75375703,145.328572 L0.25695984,139.505518 L0.25695984,50.7968581 L6.68095583,42.2481185 L23.6403052,35.6816954 L28.3940623,35.6816954 L47.6660502,43.115382 L54.475486,50.4251737 L54.475486,140.992255 Z" id="polygon3484" stroke="#B5B5B5" stroke-width="1.92758788"></path>
                                <path d="M29.6788615,35.6816954 L26.8523032,33.3276947 L25.4390241,33.3276947 L23.6403052,33.3276947 L21.1991868,35.6816954 L21.1991868,23.2922178 L25.4390241,16.3541104 L29.6788615,23.2922178 L29.6788615,35.6816954 Z" id="polygon3486" stroke="#B5B5B5" stroke-width="1.92758788" fill="#B5B5B5"></path>
                                <path d="M25.9529399,153.381732 L25.9529399,33.3276947" id="line3488" stroke="#B5B5B5" stroke-width="1.92758788" fill="#231F20"></path>
                                <path d="M0.0556761471,94.9033958 L53.9356772,94.9033958" id="line3490" stroke="#B5B5B5" stroke-width="3.08420643" fill="#231F20"></path>
                            </g>
                            <g id="yellow3" transform="translate(42.401118, 106.562838)" stroke="#FFA800" stroke-width="1.15653632" fill="#FFA800">
                                <path d="M0.513919679,0.247789552 C0.513919679,0.247789552 8.99359439,1.11505298 15.0321506,1.61063209 C19.271988,1.98231641 23.8972651,1.73452686 24.9251044,1.36284253 C25.9529438,0.991158206 24.9251044,14.4956888 24.9251044,14.4956888 C24.9251044,14.4956888 18.5011085,16.6019 14.1327912,13.3806358 C9.7644739,10.1593716 0.12847992,3.34515895 0.513919679,0.247789552 L0.513919679,0.247789552 Z" id="path3471"></path>
                            </g>
                            <g id="yellow2" transform="translate(43.685917, 64.438614)" stroke="#FFA800" stroke-width="1.15653632" fill="#FFA800">
                                <path d="M0.25695984,8.42484475 C0.25695984,8.42484475 8.86511447,5.57526491 22.9979056,1.11505298 L22.9979056,9.78768729 C22.9979056,9.78768729 20.1713474,14.9912679 8.99359439,13.1328462 C2.18415864,11.8938985 0.25695984,8.42484475 0.25695984,8.42484475 L0.25695984,8.42484475 Z" id="path3474"></path>
                            </g>
                            <g id="pink2" transform="translate(37.261921, 42.137554)" stroke="#E95A78" stroke-width="1.92758788" fill="#E95A78">
                                <path d="M0,14.4956888 L0,3.09736939 C0,3.09736939 9.37903415,2.35400074 11.8201526,1.73452686 C14.2612711,1.11505298 19.271988,0 19.271988,0 C19.271988,0 14.389751,11.6461089 8.60815463,13.5045306 C2.82655824,15.486847 0,14.4956888 0,14.4956888 L0,14.4956888 Z" id="path3477"></path>
                            </g>
                            <g id="pink1" transform="translate(0.002744, 80.544935)" stroke="#E95A78" stroke-width="1.92758788" fill="#E95A78">
                                <path d="M1.15631928,0.247789552 L24.2827048,0.991158206 C24.2827048,0.991158206 19.6574277,9.16821341 16.05999,9.16821341 C12.3340723,9.16821341 1.2847992,11.8938985 1.15631928,0.247789552 L1.15631928,0.247789552 Z" id="path3499"></path>
                            </g>
                            <g id="yellow1" transform="translate(3.857142, 54.527032)" stroke="#FFA800" stroke-width="1.15653632" fill="#FFA800">
                                <path d="M0.25695984,1.98231641 C0.25695984,1.98231641 22.9979056,3.55271368e-15 23.5118253,1.98231641 C24.1542249,3.96463283 23.5118253,12.2655828 23.5118253,12.2655828 C23.5118253,12.2655828 18.6295884,14.9912679 14.2612711,12.2655828 C9.89295382,9.53989774 0.385439759,5.32747536 0.25695984,1.98231641 L0.25695984,1.98231641 Z" id="path3502"></path>
                            </g>
                            <g id="blue2" transform="translate(11.565937, 99.129151)" stroke="#00ACD0" stroke-width="1.92758788" fill="#00ACD0">
                                <path d="M0.385439759,1.48673731 L0.385439759,12.8850567 C0.385439759,12.8850567 3.34047791,17.7169529 7.58031527,15.3629522 C11.8201526,13.0089515 15.0321506,12.0177933 19.271988,7.55758132 C23.3833454,3.22126417 27.4947028,1.11505298 26.7238233,0.371684327 C25.9529438,-0.371684327 0.385439759,1.48673731 0.385439759,1.48673731 L0.385439759,1.48673731 Z" id="path3505"></path>
                            </g>
                            <g id="blue1" transform="translate(11.565937, 123.908106)" stroke="#00ACD0" stroke-width="1.92758788" fill="#00ACD0">
                                <path d="M0.385439759,7.55758132 C0.385439759,7.55758132 33.7902189,5.82305446 44.9679719,0.619473879 C47.9230101,-0.743368655 45.4818916,15.486847 45.4818916,15.486847 C45.4818916,15.486847 46.2527711,17.2213738 40.4711747,18.9559007 C34.6895783,20.6904276 33.7902189,21.557691 24.5396647,19.5753746 C14.5182309,17.2213738 0.385439759,12.5133724 0.385439759,7.55758132 L0.385439759,7.55758132 Z" id="path3508"></path>
                            </g>
                        </g>
                        <path d="M227.1,59.7 L126.2,1.5 C125.1,0.8 123.6,0.8 122.5,1.5 L21.6,59.7 C20.5,60.4 19.8,61.6 19.8,62.9 L19.8,179.4 C19.8,180.7 20.5,182 21.6,182.6 L122.5,240.8 C123.1,241.1 123.7,241.3 124.3,241.3 C124.9,241.3 125.6,241.1 126.1,240.8 L227,182.6 C228.1,181.9 228.8,180.7 228.8,179.4 L228.8,62.9 C228.9,61.6 228.2,60.4 227.1,59.7 L227.1,59.7 L227.1,59.7 Z M221.6,177.3 L124.3,233.4 L27.1,177.3 L27,177.3 L27,65 L124.3,8.9 L221.4,65 L221.6,65.1 L221.6,177.3 L221.6,177.3 Z" id="path5813" fill="#FFA800" sketch:type="MSShapeGroup"></path>
                        <path d="M94.388009,190.76165 C94.197074,190.37978 94.324359,189.93427 94.706236,189.67969 C95.024462,189.48875 95.406334,189.5524 95.660915,189.80697 L99.09776,192.86195 L98.143082,188.40678 C98.079432,188.0249 98.206732,187.64304 98.524953,187.4521 L98.652243,187.3884 C98.970469,187.19746 99.352342,187.26111 99.670568,187.5157 L103.043764,190.57067 L102.089082,186.05185 C102.025412,185.73363 102.152752,185.35177 102.470964,185.16082 C102.852834,184.96989 103.298352,185.03352 103.489282,185.4154 C103.552952,185.4791 103.552952,185.60633 103.616576,185.73363 L104.69854,191.589 C104.76221,192.03452 104.63487,192.35273 104.31667,192.54367 L104.189387,192.60737 C103.871152,192.79831 103.489282,192.73465 103.171058,192.48009 L99.92515,189.61604 L100.75254,193.88028 C100.81621,194.3258 100.68887,194.64402 100.370666,194.83496 L100.243376,194.89866 C99.92515,195.08959 99.543277,195.02595 99.225051,194.77135 L94.578946,191.01629 C94.515296,190.95254 94.451654,190.88895 94.388009,190.76165 Z" id="path4242" fill="#669933" sketch:type="MSShapeGroup" transform="translate(99.507372, 190.033117) rotate(-6.000000) translate(-99.507372, -190.033117) "></path>
                        <path d="M122.43864,181.81141 C122.43864,181.34091 122.7747,181.00484 123.2452,181.00484 C123.7157,181.00484 124.05178,181.34091 124.05178,181.81141 L124.05178,187.05412 L127.14364,187.05412 C127.54691,187.05412 127.88299,187.39019 127.88299,187.79348 C127.88299,188.19677 127.54691,188.53283 127.14364,188.53283 L123.2452,188.53283 C122.7747,188.53283 122.43864,188.19677 122.43864,187.72627 L122.43864,181.81141 L122.43864,181.81141 Z" id="path4348" fill="#669933" sketch:type="MSShapeGroup"></path>
                        <path d="M146.0687,187.21304 L146.0687,187.21304 C147.21345,185.20973 149.7176,184.49426 151.79246,185.71055 C152.86566,186.28293 153.36649,186.92686 153.79578,187.78541 C153.86728,188.00006 153.93887,188.28624 153.72428,188.57244 C153.50964,189.00172 152.93727,189.14481 152.50798,188.85863 C152.29333,188.71553 152.22179,188.57244 152.15024,188.42935 C151.93561,187.85697 151.57786,187.42769 150.93395,187.06995 C149.78918,186.42603 148.35824,186.92686 147.71432,188.07161 L147.71432,188.07161 C146.99886,189.35946 147.28504,190.79039 148.57289,191.50587 C149.14527,191.79205 149.71764,192.0067 150.21847,191.93515 L150.79084,190.9335 L149.78918,190.36112 C149.43146,190.14647 149.28835,189.71719 149.503,189.2879 C149.71764,188.85863 150.21847,188.78707 150.5762,189.00172 L152.29333,190.00338 C152.72262,190.21802 152.8657,190.79039 152.65107,191.21968 L151.64941,192.9368 C151.36321,193.36609 151.07703,193.58073 150.5762,193.58073 C149.78918,193.58073 148.78753,193.43763 147.71432,192.86526 C145.49637,191.57741 144.85244,189.21636 146.06874,187.21304 L146.0687,187.21304 Z" id="path4464" fill="#669933" sketch:type="MSShapeGroup"></path>
                        <g id="g5817" transform="translate(35.000000, 73.000000)"></g>
                        <g id="g5829" transform="translate(56.000000, 180.000000)"></g>
                        <g id="g5835" transform="translate(40.000000, 74.000000)"></g>
                        <g id="g5935" transform="translate(68.000000, 43.000000)" sketch:type="MSShapeGroup">
                            <rect id="Rectangle-1" opacity="0.768015392" fill="#FFFFFF" x="2.17475728" y="1.10526316" width="107.650485" height="17.6842105"></rect>
                            <path d="M111.021359,20.2263158 L0.761165049,20.2263158 L0.761165049,0.110526316 L111.021359,0.110526316 L111.021359,20.2263158 L111.021359,20.2263158 Z M2.93592233,18.0157895 L108.846602,18.0157895 L108.846602,2.32105263 L2.93592233,2.32105263 L2.93592233,18.0157895 L2.93592233,18.0157895 Z" id="path5937" fill="#00ACD0" filter="url(#filter-1)"></path>
                            <g id="g5939" transform="translate(17.398058, 5.526316)" fill="#00ACD0">
                                <path d="M1.73980583,8.84210526 C2.17475728,8.84210526 2.50097087,8.51052632 2.50097087,7.95789474 L2.50097087,3.64736842 L5.65436893,8.17894737 C5.87184466,8.51052632 6.08932039,8.73157895 6.41553398,8.73157895 L6.41553398,8.73157895 C6.85048544,8.73157895 7.17669903,8.4 7.17669903,7.84736842 L7.17669903,1.54736842 C7.17669903,1.10526316 6.85048544,0.663157895 6.41553398,0.663157895 C5.98058252,0.663157895 5.65436893,0.994736842 5.65436893,1.54736842 L5.65436893,5.63684211 L2.60970874,1.21578947 C2.39223301,0.884210526 2.17475728,0.663157895 1.84854369,0.663157895 L1.73980583,0.663157895 C1.30485437,0.663157895 0.978640777,0.994736842 0.978640777,1.54736842 L0.978640777,7.84736842 C0.978640777,8.51052632 1.30485437,8.84210526 1.73980583,8.84210526 L1.73980583,8.84210526 L1.73980583,8.84210526 Z" id="path5941"></path>
                                <path d="M12.5048544,8.95263158 C14.6796117,8.95263158 16.3106796,7.07368421 16.3106796,4.86315789 L16.3106796,4.86315789 C16.3106796,2.54210526 14.7883495,0.773684211 12.5048544,0.773684211 C10.3300971,0.773684211 8.69902913,2.65263158 8.69902913,4.86315789 L8.69902913,4.86315789 C8.69902913,7.07368421 10.3300971,8.95263158 12.5048544,8.95263158 L12.5048544,8.95263158 L12.5048544,8.95263158 Z M10.438835,4.86315789 C10.438835,3.42631579 11.3087379,2.43157895 12.6135922,2.43157895 C13.8097087,2.43157895 14.7883495,3.53684211 14.7883495,4.97368421 L14.7883495,4.97368421 C14.7883495,6.41052632 13.9184466,7.40526316 12.6135922,7.40526316 C11.3087379,7.29473684 10.438835,6.18947368 10.438835,4.86315789 L10.438835,4.86315789 L10.438835,4.86315789 Z" id="path5943"></path>
                                <path d="M18.5941748,8.84210526 L20.5514563,8.84210526 C22.8349515,8.84210526 24.3572816,7.07368421 24.3572816,4.86315789 L24.3572816,4.86315789 C24.3572816,2.65263158 22.8349515,0.884210526 20.5514563,0.884210526 L18.5941748,0.884210526 C18.1592233,0.884210526 17.8330097,1.21578947 17.8330097,1.76842105 L17.8330097,7.84736842 C17.8330097,8.4 18.1592233,8.84210526 18.5941748,8.84210526 L18.5941748,8.84210526 L18.5941748,8.84210526 Z M19.3553398,2.43157895 L20.5514563,2.43157895 C21.8563107,2.43157895 22.7262136,3.42631579 22.7262136,4.86315789 L22.7262136,4.86315789 C22.7262136,6.3 21.8563107,7.29473684 20.5514563,7.29473684 L19.3553398,7.29473684 L19.3553398,2.43157895 L19.3553398,2.43157895 Z" id="path5945"></path>
                                <path d="M26.5320388,8.84210526 L30.5553398,8.84210526 C30.8815534,8.84210526 31.207767,8.51052632 31.207767,8.06842105 C31.207767,7.62631579 30.8815534,7.29473684 30.5553398,7.29473684 L27.2932039,7.29473684 L27.2932039,5.52631579 L30.0116505,5.52631579 C30.3378641,5.52631579 30.6640777,5.19473684 30.6640777,4.75263158 C30.6640777,4.31052632 30.3378641,3.97894737 30.0116505,3.97894737 L27.2932039,3.97894737 L27.2932039,2.32105263 L30.4466019,2.32105263 C30.7728155,2.32105263 31.0990291,1.98947368 31.0990291,1.54736842 C31.0990291,1.10526316 30.7728155,0.773684211 30.4466019,0.773684211 L26.5320388,0.773684211 C26.0970874,0.773684211 25.7708738,1.10526316 25.7708738,1.65789474 L25.7708738,7.84736842 C25.7708738,8.4 26.0970874,8.84210526 26.5320388,8.84210526 L26.5320388,8.84210526 L26.5320388,8.84210526 Z" id="path5947"></path>
                                <path d="M32.5126214,7.95789474 C33.2737864,8.62105263 34.2524272,8.95263158 35.231068,8.95263158 C36.7533981,8.95263158 37.8407767,8.06842105 37.8407767,6.52105263 L37.8407767,6.52105263 C37.8407767,5.08421053 37.0796117,4.53157895 35.5572816,4.08947368 C34.361165,3.75789474 34.0349515,3.53684211 34.0349515,3.09473684 L34.0349515,3.09473684 C34.0349515,2.76315789 34.361165,2.32105263 34.9048544,2.32105263 C35.3398058,2.32105263 35.8834951,2.54210526 36.4271845,2.87368421 C36.5359223,2.98421053 36.6446602,2.98421053 36.7533981,2.98421053 C37.1883495,2.98421053 37.5145631,2.65263158 37.5145631,2.21052632 C37.5145631,1.87894737 37.4058252,1.65789474 37.1883495,1.43684211 C36.5359223,0.994736842 35.7747573,0.663157895 34.9048544,0.663157895 C33.4912621,0.663157895 32.4038835,1.65789474 32.4038835,3.09473684 L32.4038835,3.09473684 C32.4038835,4.64210526 33.2737864,5.08421053 34.7961165,5.52631579 C35.992233,5.85789474 36.2097087,6.07894737 36.2097087,6.52105263 L36.2097087,6.52105263 C36.2097087,6.96315789 35.8834951,7.29473684 35.231068,7.29473684 C34.5786408,7.29473684 33.9262136,6.96315789 33.3825243,6.52105263 C33.2737864,6.41052632 33.1650485,6.3 32.9475728,6.3 C32.5126214,6.3 32.1864078,6.63157895 32.1864078,7.07368421 C32.1864078,7.62631579 32.4038835,7.84736842 32.5126214,7.95789474 L32.5126214,7.95789474 L32.5126214,7.95789474 Z" id="path5949"></path>
                                <path d="M42.5165049,8.95263158 C43.6038835,8.95263158 44.3650485,8.62105263 45.0174757,7.95789474 C45.1262136,7.84736842 45.2349515,7.62631579 45.2349515,7.40526316 C45.2349515,6.96315789 44.9087379,6.63157895 44.4737864,6.63157895 C44.3650485,6.63157895 44.1475728,6.74210526 44.038835,6.85263158 C43.6038835,7.29473684 43.168932,7.40526316 42.5165049,7.40526316 C41.3203883,7.40526316 40.4504854,6.3 40.4504854,4.86315789 L40.4504854,4.86315789 C40.4504854,3.42631579 41.3203883,2.43157895 42.5165049,2.43157895 C43.0601942,2.43157895 43.4951456,2.65263158 43.9300971,2.98421053 C44.038835,3.09473684 44.1475728,3.20526316 44.3650485,3.20526316 C44.8,3.20526316 45.1262136,2.87368421 45.1262136,2.32105263 C45.1262136,1.98947368 45.0174757,1.76842105 44.8,1.54736842 C44.2563107,1.10526316 43.4951456,0.773684211 42.407767,0.773684211 C40.2330097,0.773684211 38.7106796,2.65263158 38.7106796,4.86315789 L38.7106796,4.86315789 C38.9281553,7.07368421 40.5592233,8.95263158 42.5165049,8.95263158 L42.5165049,8.95263158 L42.5165049,8.95263158 Z" id="path5951"></path>
                                <path d="M47.6271845,8.84210526 C48.0621359,8.84210526 48.3883495,8.51052632 48.3883495,7.95789474 L48.3883495,5.52631579 L51.3242718,5.52631579 L51.3242718,7.95789474 C51.3242718,8.4 51.6504854,8.84210526 52.0854369,8.84210526 C52.5203883,8.84210526 52.8466019,8.51052632 52.8466019,7.95789474 L52.8466019,1.65789474 C52.8466019,1.21578947 52.5203883,0.773684211 52.0854369,0.773684211 C51.6504854,0.773684211 51.3242718,1.10526316 51.3242718,1.65789474 L51.3242718,3.97894737 L48.3883495,3.97894737 L48.3883495,1.65789474 C48.3883495,1.21578947 48.0621359,0.773684211 47.6271845,0.773684211 C47.192233,0.773684211 46.8660194,1.10526316 46.8660194,1.65789474 L46.8660194,7.95789474 C46.7572816,8.51052632 47.0834951,8.84210526 47.6271845,8.84210526 L47.6271845,8.84210526 L47.6271845,8.84210526 Z" id="path5953"></path>
                                <path d="M58.0660194,8.95263158 C60.2407767,8.95263158 61.8718447,7.07368421 61.8718447,4.86315789 L61.8718447,4.86315789 C61.8718447,2.54210526 60.3495146,0.773684211 58.0660194,0.773684211 C55.8912621,0.773684211 54.2601942,2.65263158 54.2601942,4.86315789 L54.2601942,4.86315789 C54.2601942,7.07368421 55.8912621,8.95263158 58.0660194,8.95263158 L58.0660194,8.95263158 L58.0660194,8.95263158 Z M55.8912621,4.86315789 C55.8912621,3.42631579 56.761165,2.43157895 58.0660194,2.43157895 C59.2621359,2.43157895 60.2407767,3.53684211 60.2407767,4.97368421 L60.2407767,4.97368421 C60.2407767,6.41052632 59.3708738,7.40526316 58.0660194,7.40526316 C56.8699029,7.29473684 55.8912621,6.18947368 55.8912621,4.86315789 L55.8912621,4.86315789 L55.8912621,4.86315789 Z" id="path5955"></path>
                                <path d="M66.7650485,8.95263158 C68.9398058,8.95263158 70.5708738,7.07368421 70.5708738,4.86315789 L70.5708738,4.86315789 C70.5708738,2.54210526 69.0485437,0.773684211 66.7650485,0.773684211 C64.5902913,0.773684211 62.9592233,2.65263158 62.9592233,4.86315789 L62.9592233,4.86315789 C62.9592233,7.07368421 64.5902913,8.95263158 66.7650485,8.95263158 L66.7650485,8.95263158 L66.7650485,8.95263158 Z M64.5902913,4.86315789 C64.5902913,3.42631579 65.4601942,2.43157895 66.7650485,2.43157895 C67.961165,2.43157895 68.9398058,3.53684211 68.9398058,4.97368421 L68.9398058,4.97368421 C68.9398058,6.41052632 68.0699029,7.40526316 66.7650485,7.40526316 C65.568932,7.29473684 64.5902913,6.18947368 64.5902913,4.86315789 L64.5902913,4.86315789 L64.5902913,4.86315789 Z" id="path5957"></path>
                                <path d="M72.8543689,8.84210526 L76.5514563,8.84210526 C76.8776699,8.84210526 77.2038835,8.51052632 77.2038835,8.06842105 C77.2038835,7.62631579 76.8776699,7.29473684 76.5514563,7.29473684 L73.615534,7.29473684 L73.615534,1.76842105 C73.615534,1.32631579 73.2893204,0.884210526 72.8543689,0.884210526 C72.4194175,0.884210526 72.0932039,1.21578947 72.0932039,1.76842105 L72.0932039,7.95789474 C71.984466,8.4 72.4194175,8.84210526 72.8543689,8.84210526 L72.8543689,8.84210526 L72.8543689,8.84210526 Z" id="path5959"></path>
                            </g>
                        </g>
                        <g id="g5961" transform="translate(78.000000, 193.000000)" fill="#E95A78" sketch:type="MSShapeGroup">
                            <path d="M87.8,4.1 C87.5,3.6 86.9,3.4 86.4,3.7 L50.4,24.5 L65.7,4.9 C66,4.5 66,3.8 65.5,3.5 C65.1,3.2 64.4,3.2 64.1,3.7 L47.4,25.1 L47.4,4.2 C47.4,3.7 47,3.2 46.4,3.2 C45.8,3.2 45.4,3.6 45.4,4.2 L45.4,25.1 L28.7,3.7 C28.4,3.3 27.7,3.2 27.3,3.5 C26.9,3.8 26.8,4.5 27.1,4.9 L42.4,24.5 L5.6,3.3 C5.1,3 4.5,3.2 4.2,3.7 C3.9,4.2 4.1,4.8 4.6,5.1 L45.9,28.9 L46,28.9 C46.1,28.9 46.1,29 46.1,29 L46.2,29 L46.3,29 L46.4,29 C46.5,29 46.6,29.1 46.6,29.1 L46.6,29.1 C46.7,29.1 46.8,29.1 46.8,29 L46.9,29 L47,29 C47.1,29 47.1,28.9 47.1,28.9 L47.2,28.9 L87.8,5.5 C87.9,5.2 88.1,4.6 87.8,4.1 L87.8,4.1 L87.8,4.1 Z" id="path5963"></path>
                            <circle id="Oval" cx="90.5" cy="2.2" r="1.3"></circle>
                            <circle id="circle5966" cx="1.6" cy="2.2" r="1.3"></circle>
                        </g>
                    </g>
                </g>
            </g>
        </g>
    </g>
</svg>